# xmcd
#
# Track frame offsets:
#	150
#	18000
#	37200
#	54675
#	75900
#	100095
#	117750
#	156750
#	174000
#	192375
#	213075
#	230625
#	246375
#	266550
#	289725
#	307762
#	325425
#
# Disc length: 4537 seconds
#
# Revision: 1
# Processed by: cddbd v1.5PL3 Copyright (c) Steve Scherf et al.
# Submitted via: audiograbber 1.81.02
#
DISCID=dd11b711
DTITLE=Diaforoi - Golden Ballads CD2
DYEAR=1900
DGENRE=Ballad
TTITLE0=Spice Girls - 2 become 1
TTITLE1=Toni Braxton - I don't want to
TTITLE2=Backstreet Boys - Quit playing games (with my heart)
TTITLE3=R.Kelly - I believe I can fly
TTITLE4=Eros Ramazzotti - L'aurora
TTITLE5=3T - I need you
TTITLE6=Prince - Purple rain
TTITLE7=Gloria Estefan - Reach
TTITLE8=Sarah Brightman - Time to say goodbye
TTITLE9=Gary Barlow - Forever love
TTITLE10=January feat DL Company - Wishing on the same star
TTITLE11=Jam and Spoon feat Plavka - Kaleidoscope skies
TTITLE12=No mercy - When I die
TTITLE13=Ricky Martin - Puego de noche - Nieve de Dia
TTITLE14=Soraya - Suddenly
TTITLE15=Dune - Who wants to live forver
TTITLE16=Donna Lewis - I will love you always forever
EXTD=
EXTT0=
EXTT1=
EXTT2=
EXTT3=
EXTT4=
EXTT5=
EXTT6=
EXTT7=
EXTT8=
EXTT9=
EXTT10=
EXTT11=
EXTT12=
EXTT13=
EXTT14=
EXTT15=
EXTT16=
PLAYORDER=
